Coordinates
version=1
nRows=14
nColumns=28
inDegrees=yes

Units are S.I. units (second, meters, Newtons, ...)
Angles are in degrees.

endheader
time	pelvis_tilt	pelvis_list	pelvis_rotation	pelvis_tx	pelvis_ty	pelvis_tz	hip_flexion_r	hip_adduction_r	hip_rotation_r	knee_angle_r	ankle_angle_r	subtalar_angle_r	mtp_angle_r	hip_flexion_l	hip_adduction_l	hip_rotation_l	knee_angle_l	socket_flexion	socket_adduction	socket_rotation	socket_tx	socket_ty	socket_tz	foot_flex	lumbar_extension	lumbar_bending	lumbar_rotation
      0.93750000	      5.09478893	      1.74006407	      5.92803923	      0.40725631	      1.04412617	      0.28301409	     -0.12559586	      0.92816101	    -13.27461036	    -16.69361776	     12.09755641	     -4.32305025	      9.32779014	     13.94352824	      4.78172792	      5.13644843	    -70.36413804	     -8.08364965	      1.29837450	      3.47581132	      0.00000000	      0.02782406	      0.00000000	      1.21337065	    -13.95854577	     -0.16786843	     -4.56840754
      0.94166667	      5.02172223	      1.94496474	      5.75782882	      0.41228308	      1.04486246	      0.28345175	     -0.66102931	      0.79020844	    -13.18638342	    -16.08904675	     12.02683507	     -3.87450380	      9.37349754	     14.58220260	      5.07223670	      5.02786627	    -70.08390693	     -8.15941874	      1.26581925	      3.51082789	      0.00000000	      0.02855846	      0.00000000	      1.19084945	    -13.86024335	     -0.49333476	     -4.26103959
      0.94583333	      4.98063329	      2.06083182	      5.52181642	      0.41710394	      1.04552000	      0.28387945	     -1.07646024	      0.69602347	    -13.18538046	    -15.74776530	     11.95941818	     -3.51500096	      9.43005303	     15.13605007	      5.26441401	      4.92183079	    -69.69120451	     -8.21893707	      1.22952569	      3.54508477	      0.00000000	      0.02881699	      0.00000000	      1.19286636	    -13.83760045	     -0.69867286	     -3.97403738
      0.95000000	      4.99734110	      2.06107469	      5.29840670	      0.42144093	      1.04603185	      0.28418390	     -1.37195085	      0.69073898	    -13.26882152	    -15.71934769	     11.96496774	     -3.47244994	      9.43873749	     15.67161069	      5.35436292	      4.91408631	    -69.32740539	     -8.29160189	      1.24012526	      3.56859124	      0.00000000	      0.02882351	      0.00000000	      1.22042269	    -13.95950894	     -0.68344962	     -3.93141959
      0.95416667	      4.91513512	      2.23071815	      5.10939752	      0.42647278	      1.04663502	      0.28461896	     -1.87629515	      0.57577932	    -13.18510547	    -15.13612745	     11.90797959	     -3.03684486	      9.50269470	     16.23938651	      5.59940531	      4.82227528	    -68.86714912	     -8.34804624	      1.19931465	      3.58441244	      0.00000000	      0.02921881	      0.00000000	      1.19542797	    -13.84627306	     -0.96757580	     -3.62026322
      0.95833333	      4.93298289	      2.22492385	      4.90156254	      0.43074902	      1.04707232	      0.28487376	     -2.16333226	      0.57289764	    -13.26062418	    -15.11868355	     11.90620324	     -2.99304023	      9.51131942	     16.77104239	      5.68141425	      4.81955864	    -68.46801474	     -8.43700808	      1.19341865	      3.60204890	      0.00000000	      0.02933612	      0.00000000	      1.22743356	    -13.96963988	     -0.95294245	     -3.57622150
      0.96250000	      5.07225659	      2.63933743	      4.38132210	      0.43623828	      1.04804715	      0.28563519	     -2.79121538	      0.08527758	    -13.31563658	    -14.82198378	     11.87653243	     -1.74710331	     10.55796656	     16.51020763	      6.13868254	      4.65225084	    -66.84485538	     -8.01607118	      1.33909577	      3.38780318	      0.00000000	      0.02702767	      0.00000000	      1.12463708	    -14.07535737	     -1.59678848	     -2.63137761
      0.96666667	      5.02776760	      2.68998988	      4.25513207	      0.44077863	      1.04843737	      0.28588468	     -3.18273898	      0.06847398	    -13.32122955	    -14.49115120	     11.83663074	     -1.60268446	     10.59109201	     17.10288788	      6.27644108	      4.65806758	    -66.42237162	     -8.09750151	      1.29503501	      3.38595584	      0.00000000	      0.02754788	      0.00000000	      1.24192792	    -14.07852246	     -1.67779294	     -2.57688421
      0.97083333	      4.96906826	      2.72649553	      4.09703438	      0.44541483	      1.04876544	      0.28615405	     -3.55766511	      0.05533430	    -13.33092171	    -14.15937952	     11.76661376	     -1.42851484	     10.63027284	     17.64018791	      6.38477615	      4.65199000	    -65.88909320	     -8.18228307	      1.24899668	      3.41828460	      0.00000000	      0.02770135	      0.00000000	      1.21437707	    -14.04457423	     -1.74590348	     -2.47727100
      0.97500000	      4.98213641	      2.70733314	      3.92305177	      0.44962145	      1.04902093	      0.28635523	     -3.83461413	      0.06483449	    -13.39432900	    -14.14740711	     11.76494663	     -1.40427126	     10.63621457	     18.17641119	      6.44646941	      4.67038353	    -65.45626085	     -8.30773156	      1.20688425	      3.42239092	      0.00000000	      0.02805592	      0.00000000	      1.25183212	    -14.17295368	     -1.72189095	     -2.45515388
      0.97916667	      4.85457534	      2.76863171	      3.80137478	      0.45472476	      1.04925774	      0.28667199	     -4.30576549	      0.06743283	    -13.32540312	    -13.51255919	     11.70334147	     -1.09329314	     10.68914111	     18.67450371	      6.55883212	      4.63381794	    -64.74651650	     -8.35587713	      1.11135005	      3.45359455	      0.00000000	      0.02796543	      0.00000000	      1.22811965	    -13.97523388	     -1.86659100	     -2.26905832
      0.98333333	      4.86569358	      2.74353974	      3.62742356	      0.45888044	      1.04941631	      0.28686657	     -4.57955303	      0.07487380	    -13.38284738	    -13.48888721	     11.69279173	     -1.06259868	     10.69808927	     19.20901135	      6.60625943	      4.65435147	    -64.32219746	     -8.53252142	      1.06240338	      3.47785617	      0.00000000	      0.02843895	      0.00000000	      1.25877923	    -14.11708639	     -1.83262395	     -2.23721860
      0.98750000	      4.82079190	      2.91047755	      3.12250800	      0.46425319	      1.04989096	      0.28767765	     -5.05453978	     -0.08869155	    -13.01706570	    -12.99839445	     11.38809042	     -0.58509328	     11.07364535	     19.08557312	      6.73293502	      4.49314209	    -62.44176197	     -8.00117482	      1.13083446	      3.32062362	      0.00000000	      0.02577061	      0.00000000	      1.27011375	    -13.97988767	     -2.17263305	     -1.49566295
      0.99166667	      4.84017061	      2.88433595	      2.97889858	      0.46836166	      1.04995514	      0.28788003	     -5.33507380	     -0.07237426	    -13.08119334	    -12.98517935	     11.41206529	     -0.57759894	     11.08558994	     19.62185583	      6.77862772	      4.53395127	    -62.03650263	     -8.22984096	      1.06280051	      3.32864977	      0.00000000	      0.02644740	      0.00000000	      1.29960210	    -14.12526293	     -2.15097922	     -1.48467564
